<?xml version="1.0" encoding="UTF-8"?>
<svg version="1.1" xmlns="http://www.w3.org/2000/svg" width="1024" height="611"  viewBox="220 -100 600 600">
<path d="M0 0 C2.80260764 2.25613818 5.56025452 4.55635351 8.3046875 6.8828125 C9.14 7.58148438 9.9753125 8.28015625 10.8359375 9 C19.54639315 16.52517213 27.05688858 25.21421459 33.3046875 34.8828125 C33.86929687 35.73101562 34.43390625 36.57921875 35.015625 37.453125 C51.50438649 62.76685743 58.53008717 91.74290549 58.5546875 121.7578125 C58.55536224 122.49646545 58.55603699 123.23511841 58.55673218 123.99615479 C58.54043578 135.22726612 57.97441721 145.94311736 55.3046875 156.8828125 C55.12776367 157.65189941 54.95083984 158.42098633 54.76855469 159.21337891 C50.28057937 178.57213253 43.12877478 195.78365476 31.3046875 211.8828125 C30.59892578 212.86314453 30.59892578 212.86314453 29.87890625 213.86328125 C23.49423565 222.58600024 16.82980811 231.17284915 8.3046875 237.8828125 C7.19831725 238.85948863 6.09421515 239.83873904 4.9921875 240.8203125 C0.67697781 244.52322893 -3.99955187 247.6868684 -8.6953125 250.8828125 C-9.6646875 251.5634375 -10.6340625 252.2440625 -11.6328125 252.9453125 C-21.31180834 259.06875885 -31.37116678 263.6429111 -42.2734375 267.1015625 C-43.96332641 267.64668795 -45.64006769 268.23355994 -47.3046875 268.8515625 C-80.67406794 280.50436202 -121.89728825 276.44022378 -153.63183594 261.88061523 C-163.31255857 257.19946126 -172.17623166 251.42377859 -180.6953125 244.8828125 C-181.48679688 244.2846875 -182.27828125 243.6865625 -183.09375 243.0703125 C-185.31863912 241.36937338 -187.51351037 239.63860582 -189.6953125 237.8828125 C-190.44296875 237.28339844 -191.190625 236.68398438 -191.9609375 236.06640625 C-195.80581424 232.86464738 -198.04484517 230.69667556 -199.6953125 225.8828125 C-200.28054687 225.62242187 -200.86578125 225.36203125 -201.46875 225.09375 C-204.5609359 223.41203486 -206.00615651 221.155811 -208.0703125 218.3203125 C-208.46532959 217.77802002 -208.86034668 217.23572754 -209.26733398 216.67700195 C-210.41962857 215.08587224 -211.5577766 213.48452679 -212.6953125 211.8828125 C-213.50548828 210.76132812 -213.50548828 210.76132812 -214.33203125 209.6171875 C-220.77186848 200.37205131 -226.28507261 190.14853532 -229.8359375 179.44921875 C-230.65560772 176.89647881 -230.65560772 176.89647881 -231.6796875 174.53515625 C-237.19506665 161.1497553 -239.27878077 145.28032214 -239.6953125 130.8828125 C-239.73527344 129.68269531 -239.77523437 128.48257813 -239.81640625 127.24609375 C-240.49636406 87.04858773 -229.0293912 47.35895579 -200.6953125 17.8828125 C-199.04747644 16.19752562 -197.38528573 14.52584203 -195.6953125 12.8828125 C-194.9734375 12.1403125 -194.2515625 11.3978125 -193.5078125 10.6328125 C-190.94308951 8.12508336 -188.34077066 5.67987641 -185.6953125 3.2578125 C-184.8703125 2.50242188 -184.0453125 1.74703125 -183.1953125 0.96875 C-180.78297213 -1.0440465 -178.41288226 -2.55203078 -175.6953125 -4.1171875 C-174.09196696 -5.16806941 -172.48880515 -6.21924716 -170.8894043 -7.27612305 C-119.28478134 -41.16519093 -48.56577148 -38.14876542 0 0 Z " fill="#FEFEFD" transform="translate(303.6953125,70.1171875)"/>
<path d="M0 0 C2.80260764 2.25613818 5.56025452 4.55635351 8.3046875 6.8828125 C9.14 7.58148438 9.9753125 8.28015625 10.8359375 9 C19.54639315 16.52517213 27.05688858 25.21421459 33.3046875 34.8828125 C33.86929687 35.73101562 34.43390625 36.57921875 35.015625 37.453125 C51.50438649 62.76685743 58.53008717 91.74290549 58.5546875 121.7578125 C58.55536224 122.49646545 58.55603699 123.23511841 58.55673218 123.99615479 C58.54043578 135.22726612 57.97441721 145.94311736 55.3046875 156.8828125 C55.12776367 157.65189941 54.95083984 158.42098633 54.76855469 159.21337891 C50.28057937 178.57213253 43.12877478 195.78365476 31.3046875 211.8828125 C30.59892578 212.86314453 30.59892578 212.86314453 29.87890625 213.86328125 C23.49423565 222.58600024 16.82980811 231.17284915 8.3046875 237.8828125 C7.19831725 238.85948863 6.09421515 239.83873904 4.9921875 240.8203125 C0.67697781 244.52322893 -3.99955187 247.6868684 -8.6953125 250.8828125 C-9.6646875 251.5634375 -10.6340625 252.2440625 -11.6328125 252.9453125 C-21.31180834 259.06875885 -31.37116678 263.6429111 -42.2734375 267.1015625 C-43.96332641 267.64668795 -45.64006769 268.23355994 -47.3046875 268.8515625 C-80.67406794 280.50436202 -121.89728825 276.44022378 -153.63183594 261.88061523 C-163.31255857 257.19946126 -172.17623166 251.42377859 -180.6953125 244.8828125 C-181.48679688 244.2846875 -182.27828125 243.6865625 -183.09375 243.0703125 C-185.31863912 241.36937338 -187.51351037 239.63860582 -189.6953125 237.8828125 C-190.44296875 237.28339844 -191.190625 236.68398438 -191.9609375 236.06640625 C-195.80581424 232.86464738 -198.04484517 230.69667556 -199.6953125 225.8828125 C-200.28054687 225.62242187 -200.86578125 225.36203125 -201.46875 225.09375 C-204.5609359 223.41203486 -206.00615651 221.155811 -208.0703125 218.3203125 C-208.46532959 217.77802002 -208.86034668 217.23572754 -209.26733398 216.67700195 C-210.41962857 215.08587224 -211.5577766 213.48452679 -212.6953125 211.8828125 C-213.50548828 210.76132812 -213.50548828 210.76132812 -214.33203125 209.6171875 C-220.77186848 200.37205131 -226.28507261 190.14853532 -229.8359375 179.44921875 C-230.65560772 176.89647881 -230.65560772 176.89647881 -231.6796875 174.53515625 C-237.19506665 161.1497553 -239.27878077 145.28032214 -239.6953125 130.8828125 C-239.73527344 129.68269531 -239.77523437 128.48257813 -239.81640625 127.24609375 C-240.49636406 87.04858773 -229.0293912 47.35895579 -200.6953125 17.8828125 C-199.04747644 16.19752562 -197.38528573 14.52584203 -195.6953125 12.8828125 C-194.9734375 12.1403125 -194.2515625 11.3978125 -193.5078125 10.6328125 C-190.94308951 8.12508336 -188.34077066 5.67987641 -185.6953125 3.2578125 C-184.8703125 2.50242188 -184.0453125 1.74703125 -183.1953125 0.96875 C-180.78297213 -1.0440465 -178.41288226 -2.55203078 -175.6953125 -4.1171875 C-174.09196696 -5.16806941 -172.48880515 -6.21924716 -170.8894043 -7.27612305 C-119.28478134 -41.16519093 -48.56577148 -38.14876542 0 0 Z M-122.6953125 -12.1171875 C-123.37223145 -11.92962891 -124.04915039 -11.74207031 -124.74658203 -11.54882812 C-132.62967878 -9.32580563 -140.37404116 -6.82866533 -147.6953125 -3.1171875 C-148.6646875 -2.63765625 -149.6340625 -2.158125 -150.6328125 -1.6640625 C-183.21642566 15.09770004 -207.90045701 43.84198875 -219.1328125 78.8203125 C-219.66426613 80.83837884 -220.18387232 82.8595815 -220.6953125 84.8828125 C-220.95570313 85.8821582 -221.21609375 86.88150391 -221.484375 87.91113281 C-223.79232507 97.57130261 -224.293353 106.79849362 -224.2578125 116.6953125 C-224.25766144 117.50174194 -224.25751038 118.30817139 -224.25735474 119.13903809 C-224.20409723 133.67170177 -222.38569782 147.05605578 -217.6953125 160.8828125 C-217.42267578 161.69073242 -217.15003906 162.49865234 -216.86914062 163.33105469 C-209.13353377 185.41556298 -194.67629413 205.99388752 -176.6953125 220.8828125 C-175.67630859 221.78580078 -175.67630859 221.78580078 -174.63671875 222.70703125 C-169.20123883 227.3512108 -163.35175577 231.0381067 -157.1953125 234.6328125 C-156.02101685 235.32262207 -156.02101685 235.32262207 -154.82299805 236.02636719 C-149.28970105 239.18825119 -143.64967804 241.63068175 -137.6953125 243.8828125 C-136.85178223 244.22940918 -136.00825195 244.57600586 -135.13916016 244.93310547 C-132.40471716 245.99574116 -129.63490014 246.69363196 -126.78417969 247.37402344 C-124.80813891 247.85533117 -122.84844401 248.40236277 -120.890625 248.953125 C-88.7056649 257.57104277 -53.52422293 250.65817004 -24.6953125 234.8828125 C-4.22788929 223.04818364 11.84099878 206.8740756 24.3046875 186.8828125 C24.97886719 185.80257812 25.65304687 184.72234375 26.34765625 183.609375 C32.3424747 173.66487873 35.90100602 163.47954497 38.9921875 152.3203125 C39.29962891 151.24845703 39.60707031 150.17660156 39.92382812 149.07226562 C42.93695429 138.29226284 43.50673695 128.30529111 43.5546875 117.1328125 C43.5753125 115.946875 43.5959375 114.7609375 43.6171875 113.5390625 C43.65344162 105.23686907 42.46350318 97.88121808 40.3046875 89.8828125 C39.8870357 88.18024694 39.47148488 86.47716383 39.05859375 84.7734375 C36.10772764 72.993475 36.10772764 72.993475 31.3046875 61.8828125 C30.81355469 60.90570313 30.32242188 59.92859375 29.81640625 58.921875 C17.90242092 35.86078155 0.76809626 17.77171736 -21.09619141 3.91357422 C-22.36474122 3.09589218 -23.60421092 2.2331246 -24.83203125 1.35546875 C-31.02252368 -2.99874278 -38.38967974 -5.02181929 -45.50683594 -7.38085938 C-47.56263897 -8.07254857 -49.60218793 -8.79800031 -51.640625 -9.5390625 C-53.49300781 -10.19648437 -53.49300781 -10.19648437 -55.3828125 -10.8671875 C-56.45917969 -11.25390625 -57.53554687 -11.640625 -58.64453125 -12.0390625 C-69.29872234 -15.21104084 -80.54148656 -15.47871398 -91.5703125 -15.4296875 C-93.54475342 -15.42231567 -93.54475342 -15.42231567 -95.55908203 -15.41479492 C-104.95443859 -15.30152087 -113.60634188 -14.64803899 -122.6953125 -12.1171875 Z " fill="#61A83B" transform="translate(303.6953125,70.1171875)"/>
<path d="M0 0 C5.32468076 2.66234038 7.41755658 5.83511316 10 11 C10.72439565 14.17093943 10.73332664 16.82546758 10 20 C0.40978024 34.88293539 -18.47392419 42.42039583 -33.5234375 50.5078125 C-34.65652344 51.11681396 -35.78960937 51.72581543 -36.95703125 52.35327148 C-39.1742562 53.54312942 -41.39292328 54.73030544 -43.61328125 55.91430664 C-46.75113443 57.59353323 -49.87585452 59.29543307 -53 61 C-54.67147095 61.88365234 -54.67147095 61.88365234 -56.37670898 62.78515625 C-57.45509033 63.37554687 -58.53347168 63.9659375 -59.64453125 64.57421875 C-60.61753174 65.09717529 -61.59053223 65.62013184 -62.59301758 66.15893555 C-66.32179763 69.01102302 -66.9894552 72.35182345 -68.109375 76.765625 C-75.31786685 102.94383224 -103.53773064 126.04095003 -124.34814453 141.74658203 C-125.97350945 142.97989913 -127.5791982 144.2356758 -129.18359375 145.49609375 C-130.15425781 146.23988281 -131.12492187 146.98367188 -132.125 147.75 C-133.39730469 148.73226562 -133.39730469 148.73226562 -134.6953125 149.734375 C-137 151 -137 151 -138.97753906 150.79833984 C-141.51439948 149.79694757 -142.20312549 148.77507751 -143.6640625 146.4921875 C-144.14117676 145.76040283 -144.61829102 145.02861816 -145.10986328 144.2746582 C-145.6098584 143.482771 -146.10985352 142.69088379 -146.625 141.875 C-147.6977577 140.21994903 -148.77067672 138.56500262 -149.84375 136.91015625 C-150.37613281 136.08016113 -150.90851563 135.25016602 -151.45703125 134.39501953 C-153.63966168 131.00710743 -155.88025379 127.65942468 -158.125 124.3125 C-158.94047915 123.09009382 -159.75558455 121.86743823 -160.5703125 120.64453125 C-161.17020996 119.74468506 -161.17020996 119.74468506 -161.78222656 118.82666016 C-163.63720703 116.04418945 -163.63720703 116.04418945 -165.4921875 113.26171875 C-165.90662109 112.64031006 -166.32105469 112.01890137 -166.74804688 111.37866211 C-167.57577343 110.13658804 -168.402612 108.89392172 -169.22851562 107.65063477 C-171.41512315 104.36162705 -173.62006115 101.08687342 -175.8515625 97.828125 C-176.54765625 96.80428711 -176.54765625 96.80428711 -177.2578125 95.75976562 C-178.15062666 94.4473288 -179.04884203 93.13854555 -179.953125 91.83398438 C-183 87.33738659 -183 87.33738659 -183 84 C-181.02611464 82.38079717 -179.14956993 81.03820077 -177 79.6875 C-176.06244873 79.09146973 -176.06244873 79.09146973 -175.10595703 78.48339844 C-168.67432023 74.55215793 -161.91186595 72.08853261 -154.81201172 69.65429688 C-152.28833816 68.74302698 -149.87544655 67.61812933 -147.4375 66.5 C-134.17194198 60.91450189 -119.53029258 58.22309374 -105.5 55.25 C-103.98780884 54.92938599 -103.98780884 54.92938599 -102.44506836 54.60229492 C-96.87535245 53.46339971 -91.47681158 52.73746891 -85.8125 52.3125 C-78.04882666 51.36360659 -73.36714673 47.52065951 -67.73046875 42.51660156 C-65.24776005 40.34072875 -62.67672674 38.28049526 -60.10644531 36.20947266 C-58.05878312 34.55950501 -56.02097298 32.89797148 -53.984375 31.234375 C-48.60345219 26.85358498 -43.1484755 22.5712479 -37.67041016 18.31298828 C-36.00839256 17.00659678 -34.36811516 15.67660766 -32.73046875 14.33984375 C-11.34202276 -2.94052442 -11.34202276 -2.94052442 0 0 Z " fill="#D0D2D3" transform="translate(303,118)"/>
<path d="M0 0 C0.92103516 -0.020625 1.84207031 -0.04125 2.79101562 -0.0625 C8.84794199 -0.09688993 13.27537141 0.77748665 18.8125 3.25 C18.8125 3.91 18.8125 4.57 18.8125 5.25 C19.534375 5.311875 20.25625 5.37375 21 5.4375 C24.68018892 6.50066569 26.39639826 8.43664164 28.8125 11.25 C29.44542969 11.930625 30.07835937 12.61125 30.73046875 13.3125 C42.40636203 26.63134261 43.82379059 43.28630258 42.8125 60.25 C41.37326826 73.75179273 38.15408376 87.96606349 28.8125 98.25 C27.48110181 98.920523 26.14808936 99.5878646 24.8125 100.25 C24.3175 101.735 24.3175 101.735 23.8125 103.25 C12.89091709 111.03980414 1.85051906 112.28616419 -11.1875 110.25 C-12.53682731 109.61632971 -13.87411705 108.95515775 -15.1875 108.25 C-15.17702637 109.31959961 -15.16655273 110.38919922 -15.15576172 111.49121094 C-15.11952594 115.4644841 -15.0965865 119.43774269 -15.07763672 123.41113281 C-15.0675873 125.12990781 -15.05394555 126.84866575 -15.03662109 128.56738281 C-15.01232609 131.03975641 -15.00100632 133.51190369 -14.9921875 135.984375 C-14.97670364 137.13459137 -14.97670364 137.13459137 -14.96090698 138.30804443 C-14.9594644 145.18800694 -14.9594644 145.18800694 -17.1875 148.25 C-23.42211727 151.53137751 -32.51262655 151.2460746 -39.1875 149.25 C-39.1875 148.26 -39.1875 147.27 -39.1875 146.25 C-40.5075 145.92 -41.8275 145.59 -43.1875 145.25 C-43.91464678 136.93523843 -44.34258371 128.68979819 -44.37695312 120.34448242 C-44.38524643 119.2337738 -44.39353973 118.12306519 -44.40208435 116.97869873 C-44.41933516 114.5933128 -44.43454105 112.20791135 -44.44786072 109.82250023 C-44.46910183 106.04286446 -44.49610121 102.26330697 -44.52453613 98.48371887 C-44.58889824 89.78733754 -44.64508755 81.09091197 -44.70052338 72.39447021 C-44.75559531 63.76419155 -44.8142912 55.13395864 -44.87937927 46.50374794 C-44.90584024 42.78800918 -44.92671511 39.07226589 -44.9473877 35.35649109 C-44.96399533 33.07384032 -44.98086757 30.79119146 -44.99804688 28.50854492 C-45.00223129 27.48239578 -45.00641571 26.45624664 -45.01072693 25.39900208 C-45.05828359 19.92817752 -45.38581645 14.66344383 -46.1875 9.25 C-40.52166722 5.34687075 -37.11552164 3.89772771 -30.1875 4.25 C-29.28 4.683125 -28.3725 5.11625 -27.4375 5.5625 C-22.04220528 6.70381234 -17.93923371 3.65943483 -13.1875 1.25 C-8.81705373 -0.20681542 -4.57872318 0.02510609 0 0 Z M-15.1875 29.25 C-15.7673894 31.84545877 -15.7673894 31.84545877 -15.64160156 34.82299805 C-15.64129944 35.96395432 -15.64099731 37.10491058 -15.64068604 38.28044128 C-15.62004089 39.51176285 -15.59939575 40.74308441 -15.578125 42.01171875 C-15.57246521 43.27264847 -15.56680542 44.53357819 -15.56097412 45.8327179 C-15.54236056 49.18195268 -15.50643566 52.53009717 -15.4621582 55.87902832 C-15.42120857 59.29751163 -15.40296388 62.71610764 -15.3828125 66.13476562 C-15.33866211 72.84014549 -15.27168642 79.54500979 -15.1875 86.25 C-11.3225831 88.36810948 -8.62770228 88.63277606 -4.1875 88.25 C1.06142849 86.19159667 4.57114064 83.55538167 7.26171875 78.55859375 C7.87466797 77.13740234 7.87466797 77.13740234 8.5 75.6875 C8.91636719 74.73746094 9.33273437 73.78742188 9.76171875 72.80859375 C14.39863613 61.51795849 15.36261955 41.81757219 11.03125 30.14453125 C9.59130298 27.32850583 8.19345785 25.48681164 5.5 23.8125 C-2.19912892 22.20105441 -9.38854429 23.70099928 -15.1875 29.25 Z " fill="#60A73A" transform="translate(831.1875,149.75)"/>
<path d="M0 0 C3.96217549 -0.35138559 6.6596113 -0.36573226 10.0625 1.83984375 C14.66665824 6.18066453 17.07858817 10.3143203 18.7421875 16.3359375 C19.04511719 17.28210938 19.34804688 18.22828125 19.66015625 19.203125 C21.89891767 26.21962632 23.81980876 33.2961291 25.6171875 40.4375 C26.98808338 45.5147898 28.8980655 50.41566782 30.7421875 55.3359375 C30.89252441 54.67400391 31.04286133 54.01207031 31.19775391 53.33007812 C32.74089459 46.55098994 34.30549013 39.77714172 35.88671875 33.00683594 C36.44529042 30.60995133 37.00014625 28.21219689 37.55078125 25.81347656 C38.30841391 22.52569007 39.08523357 19.24301277 39.8671875 15.9609375 C40.09615723 14.95224609 40.32512695 13.94355469 40.56103516 12.90429688 C41.4689752 9.15928548 42.34325812 5.99563047 44.34375 2.6875 C48.12242826 0.5581471 51.74097199 0.91323187 55.9921875 1.0859375 C56.83265625 1.10398438 57.673125 1.12203125 58.5390625 1.140625 C60.60726145 1.18762952 62.67487191 1.25937026 64.7421875 1.3359375 C65.2371875 2.8209375 65.2371875 2.8209375 65.7421875 4.3359375 C66.7321875 4.6659375 67.7221875 4.9959375 68.7421875 5.3359375 C71.54022492 10.93201234 69.78980558 17.80020293 67.9921875 23.4609375 C67.63833984 24.50765625 67.28449219 25.554375 66.91992188 26.6328125 C65.75147352 30.30673966 64.8036135 33.97486617 63.90234375 37.72265625 C61.8178676 46.22947178 59.41838915 54.62726115 56.9296875 63.0234375 C56.71286316 63.75829376 56.49603882 64.49315002 56.27264404 65.25027466 C52.88960402 76.70413094 49.35287223 88.09234162 45.42236328 99.37207031 C44.83410241 101.07055217 44.2684446 102.776831 43.70703125 104.484375 C39.14424847 117.95544797 32.31968995 132.61607038 21.7421875 142.3359375 C21.2678125 142.8928125 20.7934375 143.4496875 20.3046875 144.0234375 C14.52456359 148.87874158 5.76109971 147.83611699 -1.2578125 147.3359375 C-6.83436657 146.34433194 -10.5040672 142.72110274 -14 138.46484375 C-15.2578125 136.3359375 -15.2578125 136.3359375 -15.3828125 132.5234375 C-13.82820437 128.11871447 -13.82820437 128.11871447 -11.2578125 126.3359375 C-7.89453125 126.140625 -7.89453125 126.140625 -3.9453125 126.2109375 C1.23157497 126.04322105 1.23157497 126.04322105 5.8515625 123.875 C7.59076774 121.43450233 8.6455173 119.13262396 9.7421875 116.3359375 C10.00854004 115.67271484 10.27489258 115.00949219 10.54931641 114.32617188 C14.79381452 104.63288378 14.79381452 104.63288378 15.7421875 94.3359375 C14.82408698 92.53374019 13.90049694 90.73412589 12.94921875 88.94921875 C9.18115572 80.79117938 7.10059931 71.65327608 4.6796875 63.0234375 C3.24779818 57.9399429 1.5832209 53.01727565 -0.26953125 48.07421875 C-1.68059052 44.16452488 -2.85147807 40.19214332 -4.04296875 36.2109375 C-4.98231184 33.1442343 -6.01411454 30.11567199 -7.06640625 27.0859375 C-7.38569092 26.15894043 -7.70497559 25.23194336 -8.03393555 24.27685547 C-8.67118211 22.43428794 -9.31685788 20.59460873 -9.97192383 18.75830078 C-11.69020124 13.76419098 -12.86035764 9.62725345 -12.2578125 4.3359375 C-8.49491004 1.11059254 -4.73768773 0.70491547 0 0 Z " fill="#60A83B" transform="translate(890.2578125,150.6640625)"/>
<path d="M0 0 C2.15126532 3.27366461 1.943811 6.44228777 1.4375 10.1875 C0.47124806 13.36232782 -0.21714965 14.84214965 -2.5625 17.1875 C-7.63143548 17.65684588 -11.70907146 16.98895661 -16.625 15.6875 C-24.29608439 13.6662607 -30.44826516 13.39752388 -37.5625 17.1875 C-40.53560216 20.25650868 -41.44939857 23.05648572 -41.875 27.3125 C-41.15903112 36.19051417 -36.37834525 42.93542117 -29.83569336 48.7121582 C-29.21831299 49.23640381 -28.60093262 49.76064941 -27.96484375 50.30078125 C-23.05063403 54.56900745 -18.46496723 59.13829654 -13.875 63.75 C-12.63266602 64.9865332 -12.63266602 64.9865332 -11.36523438 66.24804688 C0.36922556 78.00129698 0.36922556 78.00129698 3.1875 85.6875 C3.59484375 86.7703125 4.0021875 87.853125 4.421875 88.96875 C8.04601532 100.454487 6.78770277 111.54582224 1.8125 122.375 C-3.26235645 131.97042032 -10.77428934 136.55533668 -20.625 140.375 C-35.12822855 144.3865313 -51.11572769 142.92249822 -64.5625 136.1875 C-68.52761458 133.63313145 -71.84361186 130.63638696 -73.5625 126.1875 C-73.86274995 119.66957409 -71.70997958 114.77173796 -68.5625 109.1875 C-64.07893656 109.1875 -63.22487833 109.85689561 -59.5625 112.1875 C-50.79174991 117.59412677 -42.27988761 117.98893939 -32.36328125 115.66015625 C-31.76902344 115.50417969 -31.17476563 115.34820312 -30.5625 115.1875 C-30.0675 113.7025 -30.0675 113.7025 -29.5625 112.1875 C-28.5831121 111.16730427 -27.58354551 110.16600195 -26.5625 109.1875 C-25.05063257 106.16376513 -25.13195547 103.06729923 -25 99.75 C-24.93748047 99.08806641 -24.87496094 98.42613281 -24.81054688 97.74414062 C-24.55706138 89.67101167 -29.84438082 84.20502859 -35.06777954 78.56100464 C-39.03229358 74.401204 -43.13514809 70.3851483 -47.25 66.375 C-49.07314103 64.58719397 -50.89397714 62.79712317 -52.71211243 61.00422668 C-53.8329899 59.90002803 -54.95695066 58.79894639 -56.0846405 57.70170593 C-59.48656988 54.36431893 -62.68802176 50.99572806 -65.5625 47.1875 C-65.5625 46.1975 -65.5625 45.2075 -65.5625 44.1875 C-66.2225 44.1875 -66.8825 44.1875 -67.5625 44.1875 C-71.11784089 37.56375414 -72.19241813 32.10070575 -72.0625 24.625 C-72.08570313 23.28405273 -72.08570313 23.28405273 -72.109375 21.91601562 C-72.0631499 14.01730167 -69.68465971 8.12146072 -64.4375 2.1875 C-63.93992187 1.61 -63.44234375 1.0325 -62.9296875 0.4375 C-61.5625 -0.8125 -61.5625 -0.8125 -59.5625 -0.8125 C-59.5625 -1.4725 -59.5625 -2.1325 -59.5625 -2.8125 C-39.45995825 -11.86209783 -18.72632979 -13.24545278 0 0 Z " fill="#60A83B" transform="translate(541.5625,118.8125)"/>
<path d="M0 0 C1.02029297 -0.020625 2.04058594 -0.04125 3.09179688 -0.0625 C10.96437206 -0.10321144 16.55735501 0.93279662 22.625 6.3125 C23.21152344 6.81910156 23.79804687 7.32570312 24.40234375 7.84765625 C25.6875 9.25 25.6875 9.25 25.6875 11.25 C26.6775 11.58 27.6675 11.91 28.6875 12.25 C32.51923038 18.4397183 32.81513985 24.79187807 32.80102539 31.91967773 C32.80091209 33.84087685 32.80091209 33.84087685 32.80079651 35.80088806 C32.79569145 37.17845703 32.79047548 38.55602559 32.78515625 39.93359375 C32.7832886 41.3584844 32.78186634 42.78337569 32.78086853 44.20826721 C32.77707066 47.9384034 32.76726402 51.66849996 32.75616455 55.39862061 C32.74589141 59.21300725 32.74135832 63.02740036 32.73632812 66.84179688 C32.72563902 74.31121588 32.7085958 81.78060236 32.6875 89.25 C33.3475 89.25 34.0075 89.25 34.6875 89.25 C34.6875 90.24 34.6875 91.23 34.6875 92.25 C36.6675 92.745 36.6675 92.745 38.6875 93.25 C38.67467954 97.32690477 38.51301353 101.25025378 37.6875 105.25 C33.57122315 109.18333121 29.9106796 110.03623273 24.4375 110.5625 C20.34039841 110.22107487 18.11580871 109.14462176 14.6796875 107.02734375 C10.74666909 105.49269539 6.92356161 107.48203933 3.125 108.8125 C-7.03212499 111.8521137 -16.76912244 110.8189258 -26.3125 106.25 C-33.97776547 101.2688679 -39.81573964 93.8673892 -41.75 84.875 C-43.15432149 74.61485523 -41.74461521 64.10393418 -35.9375 55.375 C-33.74955452 52.52344343 -31.53261351 50.90134026 -28.3125 49.25 C-27.75433594 48.78464844 -27.19617188 48.31929687 -26.62109375 47.83984375 C-23.5968752 45.75717548 -20.40787448 44.65860418 -16.9375 43.5625 C-16.24011719 43.34118408 -15.54273438 43.11986816 -14.82421875 42.8918457 C-7.81691035 40.83511199 -1.63635243 40.86854935 5.6875 41.25 C5.3575 35.64 5.0275 30.03 4.6875 24.25 C-4.99665159 25.18534267 -4.99665159 25.18534267 -14.0625 28.375 C-18.74542777 30.66850094 -23.18245956 31.56294255 -28.3125 30.25 C-32.19135132 27.36834325 -34.44702698 24.00089443 -35.3125 19.25 C-35.55078125 17.25 -35.55078125 17.25 -35.625 15.25 C-35.66238281 14.59 -35.69976563 13.93 -35.73828125 13.25 C-35.08686478 10.19013547 -33.76343866 9.17601322 -31.3125 7.25 C-28.71353989 5.98198653 -26.04089042 5.01397673 -23.3125 4.0625 C-22.6009375 3.80275391 -21.889375 3.54300781 -21.15625 3.27539062 C-13.77905184 0.61216704 -7.807956 0.0390154 0 0 Z M-10.1796875 66.72265625 C-13.81295797 71.269619 -14.52457297 76.54330918 -14.3125 82.25 C-13.53987205 85.24594957 -13.53987205 85.24594957 -12.3125 87.25 C-6.4907346 87.55640871 -2.52872008 87.21608593 2.6875 84.25 C6.40472824 79.7755586 6.04492848 75.45799716 5.875 69.9375 C5.86146484 69.10154297 5.84792969 68.26558594 5.83398438 67.40429688 C5.79881217 65.35258502 5.74501048 63.30120725 5.6875 61.25 C0.35785603 61.25 -6.01205712 63.43563396 -10.1796875 66.72265625 Z " fill="#64AA3F" transform="translate(737.3125,149.75)"/>
<path d="M0 0 C2.05897766 1.30992306 3.6335227 2.5020146 5.1796875 4.38671875 C5.1796875 5.04671875 5.1796875 5.70671875 5.1796875 6.38671875 C6.4996875 6.71671875 7.8196875 7.04671875 9.1796875 7.38671875 C10.67995576 12.84223968 9.5580229 16.45343889 7.1796875 21.38671875 C6.1796875 22.38671875 6.1796875 22.38671875 2.4296875 22.63671875 C-1.7199481 22.63012156 -5.26588406 21.79995168 -9.2578125 20.69921875 C-15.52166335 19.16984395 -20.12235409 19.18677834 -25.8203125 22.38671875 C-32.39976599 27.82313159 -34.89610955 35.09364768 -35.8203125 43.38671875 C-35.9799636 46.82541238 -36.00534156 50.25720286 -36.0078125 53.69921875 C-36.02618164 55.02856445 -36.02618164 55.02856445 -36.04492188 56.38476562 C-36.06569571 65.87840744 -35.31980351 74.11347881 -28.8203125 81.38671875 C-18.95035965 85.12599604 -7.2623947 81.69144752 2.1796875 78.38671875 C2.5096875 79.70671875 2.8396875 81.02671875 3.1796875 82.38671875 C4.1696875 82.38671875 5.1596875 82.38671875 6.1796875 82.38671875 C8.13108014 87.38716239 9.49948523 92.04510323 7.4453125 97.24609375 C4.53421228 102.18230716 0.68951866 103.99959683 -4.66796875 105.66796875 C-17.76724701 108.65466912 -32.92260522 108.23223914 -44.8203125 101.38671875 C-48.45369904 98.64953156 -51.65871803 95.65242119 -54.8203125 92.38671875 C-55.40941406 91.8040625 -55.99851562 91.22140625 -56.60546875 90.62109375 C-66.61214177 79.25801749 -67.48374083 59.75082232 -66.9609375 45.49462891 C-66.10980434 32.73649745 -62.30475965 19.22867745 -53.8203125 9.38671875 C-53.1396875 9.05671875 -52.4590625 8.72671875 -51.7578125 8.38671875 C-49.65653197 7.54649756 -49.65653197 7.54649756 -48.86328125 5.42578125 C-47.4553404 2.67317778 -45.89826939 2.07456965 -43.1328125 0.76171875 C-42.30394531 0.35695312 -41.47507812 -0.0478125 -40.62109375 -0.46484375 C-28.02523173 -5.6296742 -12.36144927 -5.96574291 0 0 Z " fill="#63A93E" transform="translate(618.8203125,153.61328125)"/>
<path d="M0 0 C3.75094735 2.4006063 7.37865867 4.75604756 8.61328125 9.21484375 C8.7815094 14.39449982 7.36939156 18.45076821 5 23 C4.505 23.495 4.505 23.495 4 24 C0.53163311 23.95825817 -2.92654049 23.87345613 -6.390625 23.69726562 C-12.1519641 23.56176375 -15.17744355 24.87699589 -20 28 C-20.66 28 -21.32 28 -22 28 C-21.99555878 28.87839035 -21.99111755 29.7567807 -21.98654175 30.66178894 C-21.94644455 38.94540877 -21.91600515 47.22899593 -21.89637566 55.51269054 C-21.88594465 59.77127922 -21.87179791 64.02978761 -21.84912109 68.28833008 C-21.82736837 72.39912517 -21.81542623 76.50984309 -21.81024551 80.6206913 C-21.80655412 82.18795295 -21.79934575 83.75521045 -21.78853989 85.32243919 C-21.77399258 87.51998348 -21.7720234 89.71721012 -21.77294922 91.91479492 C-21.768508 93.16499924 -21.76406677 94.41520355 -21.75949097 95.70329285 C-21.99693969 98.95805169 -22.4258466 101.15018906 -24 104 C-28.9853779 106.07879678 -33.58621461 106.21971302 -38.9375 106.125 C-39.62134766 106.11597656 -40.30519531 106.10695313 -41.00976562 106.09765625 C-42.67333287 106.07438958 -44.33671631 106.03853167 -46 106 C-46 105.01 -46 104.02 -46 103 C-47.32 102.67 -48.64 102.34 -50 102 C-49.99555878 100.97793457 -49.99111755 99.95586914 -49.98654175 98.90283203 C-49.94592621 89.25154722 -49.91598229 79.60027985 -49.89637566 69.94892883 C-49.88595671 64.98756334 -49.87183207 60.02626707 -49.84912109 55.06494141 C-49.82732528 50.27332889 -49.81541717 45.48178279 -49.81024551 40.69012451 C-49.80656184 38.86577306 -49.79936862 37.04142508 -49.78853989 35.21710205 C-49.77393534 32.65377054 -49.77202579 30.09071044 -49.77294922 27.52734375 C-49.76575867 26.77999466 -49.75856812 26.03264557 -49.75115967 25.26264954 C-49.77080179 20.19465874 -50.70150843 15.89602431 -52 11 C-52 9.68 -52 8.36 -52 7 C-45.8358333 2.51696967 -40.49993573 2.33114608 -33 3 C-32.01 3.33 -31.02 3.66 -30 4 C-26.67940194 2.85127253 -23.47450504 1.55736711 -20.24414062 0.18164062 C-13.42593385 -2.56753246 -6.85373101 -3.28407944 0 0 Z " fill="#65AA41" transform="translate(687,152)"/>
<path d="M0 0 C0.99 0.495 0.99 0.495 2 1 C2.40722656 3.07519531 2.40722656 3.07519531 2.640625 5.828125 C2.78697388 7.35360962 2.78697388 7.35360962 2.9362793 8.90991211 C3.09157104 10.56325562 3.09157104 10.56325562 3.25 12.25 C7.45235517 51.05737879 26.60085442 86.43201046 56.72216797 111.42919922 C69.13358045 121.20606366 83.07443642 128.87831737 98 134 C99.36903868 134.50763618 100.73749662 135.01684042 102.10546875 135.52734375 C131.15580557 146.11255215 164.82499979 146.43319253 194 136 C195.04285156 135.67644531 196.08570313 135.35289062 197.16015625 135.01953125 C213.07850226 129.8623595 228.1117108 121.64260244 241 111 C241.91265625 110.28714844 242.8253125 109.57429688 243.765625 108.83984375 C264.27187112 92.80060154 279.97710852 68.69929473 288 44 C288.40863281 42.95714844 288.81726563 41.91429687 289.23828125 40.83984375 C293.60887834 29.1978108 294.77202145 17.30884099 296 5 C296.66 5 297.32 5 298 5 C299.57227998 34.69862187 288.38236293 66.33293835 271 90 C270.52949219 90.65355469 270.05898438 91.30710937 269.57421875 91.98046875 C263.18954815 100.70318774 256.52512061 109.29003665 248 116 C246.89362975 116.97667613 245.78952765 117.95592654 244.6875 118.9375 C240.37229031 122.64041643 235.69576063 125.8040559 231 129 C230.030625 129.680625 229.06125 130.36125 228.0625 131.0625 C218.38350416 137.18594635 208.32414572 141.7600986 197.421875 145.21875 C195.73198609 145.76387545 194.05524481 146.35074744 192.390625 146.96875 C159.02124456 158.62154952 117.79802425 154.55741128 86.06347656 139.99780273 C76.38275393 135.31664876 67.51908084 129.54096609 59 123 C58.20851562 122.401875 57.41703125 121.80375 56.6015625 121.1875 C54.37667338 119.48656088 52.18180213 117.75579332 50 116 C48.87851563 115.10087891 48.87851563 115.10087891 47.734375 114.18359375 C43.88949826 110.98183488 41.65046733 108.81386306 40 104 C39.41476563 103.73960937 38.82953125 103.47921875 38.2265625 103.2109375 C35.1343766 101.52922236 33.68915599 99.2729985 31.625 96.4375 C31.22998291 95.89520752 30.83496582 95.35291504 30.42797852 94.79418945 C29.27568393 93.20305974 28.1375359 91.60171429 27 90 C26.45988281 89.25234375 25.91976562 88.5046875 25.36328125 87.734375 C18.92344402 78.48923881 13.41023989 68.26572282 9.859375 57.56640625 C9.03970478 55.01366631 9.03970478 55.01366631 8.015625 52.65234375 C1.20815243 36.13113148 0.29914003 17.64410402 0 0 Z " fill="#036937" transform="translate(64,192)"/>
<path d="M0 0 C5.32468076 2.66234038 7.41755658 5.83511316 10 11 C10.72439565 14.17093943 10.73332664 16.82546758 10 20 C0.40978024 34.88293539 -18.47392419 42.42039583 -33.5234375 50.5078125 C-34.65652344 51.11681396 -35.78960937 51.72581543 -36.95703125 52.35327148 C-39.1742562 53.54312942 -41.39292328 54.73030544 -43.61328125 55.91430664 C-46.75113443 57.59353323 -49.87585452 59.29543307 -53 61 C-54.11431396 61.58910156 -55.22862793 62.17820313 -56.37670898 62.78515625 C-57.45509033 63.37554687 -58.53347168 63.9659375 -59.64453125 64.57421875 C-60.61753174 65.09717529 -61.59053223 65.62013184 -62.59301758 66.15893555 C-66.32179763 69.01102302 -66.9894552 72.35182345 -68.109375 76.765625 C-75.52837398 103.7083055 -104.70462072 126.85046465 -126 143 C-126.66 142.67 -127.32 142.34 -128 142 C-125.60556157 139.91505907 -123.20919922 137.83234146 -120.8125 135.75 C-120.13896484 135.16347656 -119.46542969 134.57695312 -118.77148438 133.97265625 C-115.92908629 131.50462279 -113.087398 129.06927454 -110.13671875 126.73046875 C-107.67026479 124.73295667 -105.95015039 122.49863019 -104 120 C-102.34180057 118.3249089 -100.67391819 116.65938345 -99 115 C-86.52121243 102.31035734 -72.43232645 85.35072605 -69.375 67.3125 C-69.44373399 61.32118734 -74.16663756 57.17562694 -78 53 C-76.67789709 49.9881398 -75.36610497 48.19459869 -72.796875 46.15234375 C-71.83201172 45.37697266 -71.83201172 45.37697266 -70.84765625 44.5859375 C-70.15542969 44.04195312 -69.46320313 43.49796875 -68.75 42.9375 C-68.03199219 42.36386719 -67.31398437 41.79023438 -66.57421875 41.19921875 C-64.38944659 39.45756616 -62.19646602 37.72687326 -60 36 C-59.07670898 35.27321045 -59.07670898 35.27321045 -58.13476562 34.53173828 C-55.85697501 32.74049701 -53.578432 30.95036008 -51.29199219 29.17016602 C-48.17664822 26.73866731 -45.10121165 24.26900681 -42.0625 21.7421875 C-13.26224499 -2.17413852 -13.26224499 -2.17413852 0 0 Z " fill="#AA7E53" transform="translate(303,118)"/>
<path d="M0 0 C0.99 0 1.98 0 3 0 C5.79803742 5.59607484 4.04761808 12.46426543 2.25 18.125 C1.89615234 19.17171875 1.54230469 20.2184375 1.17773438 21.296875 C0.00928602 24.97080216 -0.938574 28.63892867 -1.83984375 32.38671875 C-3.9243199 40.89353428 -6.32379835 49.29132365 -8.8125 57.6875 C-9.02932434 58.42235626 -9.24614868 59.15721252 -9.46954346 59.91433716 C-12.85258348 71.36819344 -16.38931527 82.75640412 -20.31982422 94.03613281 C-20.90808509 95.73461467 -21.4737429 97.4408935 -22.03515625 99.1484375 C-26.59793903 112.61951047 -33.42249755 127.28013288 -44 137 C-44.474375 137.556875 -44.94875 138.11375 -45.4375 138.6875 C-51.20236428 143.529986 -59.99568428 142.52939596 -67 142 C-70.81851196 141.13388056 -73.2990087 139.79144179 -75.9375 136.8125 C-76.288125 136.214375 -76.63875 135.61625 -77 135 C-75.88625 135.33 -74.7725 135.66 -73.625 136 C-66.00737551 137.85402501 -59.17461893 137.91120963 -52.0859375 134.3046875 C-39.09360243 126.17839553 -33.41958838 110.13129577 -28.5 96.375 C-27.93479997 94.82343231 -27.36944935 93.27191946 -26.80395508 91.72045898 C-22.35245555 79.40457169 -18.45654509 66.96054926 -14.93701172 54.34619141 C-13.93585955 50.77094606 -12.90978704 47.20350094 -11.87890625 43.63671875 C-5.74329798 24.12137856 -5.74329798 24.12137856 -1.46484375 4.17578125 C-1 1 -1 1 0 0 Z " fill="#046A37" transform="translate(956,156)"/>
<path d="M0 0 C5.19476548 5.05436642 8.19622252 8.93593063 10.625 15.8125 C11.05039062 16.99457031 11.47578125 18.17664063 11.9140625 19.39453125 C17.21511246 36.99477984 14.41678692 59.38264197 7 76 C3.959368 81.25716748 1.47626872 85.28507017 -4 88 C-4.495 89.485 -4.495 89.485 -5 91 C-15.92158291 98.78980414 -26.96198094 100.03616419 -40 98 C-41.34932731 97.36632971 -42.68661705 96.70515775 -44 96 C-43.98952637 97.06959961 -43.97905273 98.13919922 -43.96826172 99.24121094 C-43.93202594 103.2144841 -43.9090865 107.18774269 -43.89013672 111.16113281 C-43.8800873 112.87990781 -43.86644555 114.59866575 -43.84912109 116.31738281 C-43.82482609 118.78975641 -43.81350632 121.26190369 -43.8046875 123.734375 C-43.79436493 124.50118591 -43.78404236 125.26799683 -43.77340698 126.05804443 C-43.7719644 132.93800694 -43.7719644 132.93800694 -46 136 C-52.23461727 139.28137751 -61.32512655 138.9960746 -68 137 C-68 135.68 -68 134.36 -68 133 C-67.13117187 132.93941406 -66.26234375 132.87882813 -65.3671875 132.81640625 C-64.21476563 132.73261719 -63.06234375 132.64882813 -61.875 132.5625 C-60.73804688 132.48128906 -59.60109375 132.40007812 -58.4296875 132.31640625 C-55.26939737 132.02485329 -52.13052852 131.52175475 -49 131 C-49 117.8 -49 104.6 -49 91 C-43 92 -43 92 -41 93 C-28.76725595 94.09500266 -19.52328932 92.03001539 -9.25 85 C1.58369428 75.8965509 6.25349291 61.90323793 7.8190918 48.22924805 C8.17500409 43.84350559 8.18448983 39.46036366 8.1875 35.0625 C8.19974609 34.12470703 8.21199219 33.18691406 8.22460938 32.22070312 C8.24135045 24.19056677 7.05344508 17.01719991 4 9.5625 C3.505 8.32693359 3.505 8.32693359 3 7.06640625 C2.06519925 4.84621662 2.06519925 4.84621662 0 3 C0 2.01 0 1.02 0 0 Z " fill="#036937" transform="translate(860,162)"/>
<path d="M0 0 C3 2 3 2 3.3984375 3.91796875 C3.34366487 9.22178482 3.00430623 14.99569377 -1 19 C-4.46836689 18.95825817 -7.92654049 18.87345613 -11.390625 18.69726562 C-17.1519641 18.56176375 -20.17744355 19.87699589 -25 23 C-25.66 23 -26.32 23 -27 23 C-26.99555878 23.87839035 -26.99111755 24.7567807 -26.98654175 25.66178894 C-26.94644455 33.94540877 -26.91600515 42.22899593 -26.89637566 50.51269054 C-26.88594465 54.77127922 -26.87179791 59.02978761 -26.84912109 63.28833008 C-26.82736837 67.39912517 -26.81542623 71.50984309 -26.81024551 75.6206913 C-26.80655412 77.18795295 -26.79934575 78.75521045 -26.78853989 80.32243919 C-26.77399258 82.51998348 -26.7720234 84.71721012 -26.77294922 86.91479492 C-26.768508 88.16499924 -26.76406677 89.41520355 -26.75949097 90.70329285 C-26.99693969 93.95805169 -27.4258466 96.15018906 -29 99 C-33.9853779 101.07879678 -38.58621461 101.21971302 -43.9375 101.125 C-44.62134766 101.11597656 -45.30519531 101.10695313 -46.00976562 101.09765625 C-47.67333287 101.07438958 -49.33671631 101.03853167 -51 101 C-50.67 99.35 -50.34 97.7 -50 96 C-41.585 95.01 -41.585 95.01 -33 94 C-31.82929817 90.4878945 -31.86822296 87.71310839 -31.8581543 84.00585938 C-31.85467987 83.29822952 -31.85120544 82.59059967 -31.84762573 81.86152649 C-31.84027847 80.32609339 -31.8349276 78.79064973 -31.83133507 77.25520325 C-31.82416665 74.82609438 -31.80849897 72.39718716 -31.78999329 69.96813965 C-31.73752975 63.06228333 -31.68951305 56.15653978 -31.67407227 49.25048828 C-31.66400705 45.02578902 -31.63472499 40.80160042 -31.59275246 36.57710266 C-31.58042094 34.96637326 -31.57532512 33.35557182 -31.57755089 31.74479675 C-31.5798965 29.49402048 -31.55779898 27.24471806 -31.5300293 24.99414062 C-31.52416306 23.71301392 -31.51829681 22.43188721 -31.51225281 21.11193848 C-31 18 -31 18 -29.13728333 16.1036377 C-24.13334658 13.5197345 -18.15576596 13.74254225 -12.625 13.4375 C-11.88894531 13.39431641 -11.15289063 13.35113281 -10.39453125 13.30664062 C-8.59651932 13.20156201 -6.79828042 13.10037907 -5 13 C-4.54625 11.783125 -4.0925 10.56625 -3.625 9.3125 C-2.45547059 6.1919073 -1.25437562 3.08769384 0 0 Z " fill="#036A37" transform="translate(692,157)"/>
<path d="M0 0 C3.89903041 2.5993536 4.44720921 4.50257019 5.4375 8.9765625 C5.88051219 12.89445158 5.511263 15.2120535 3.33984375 18.55859375 C-7.81584171 31.48502293 -23.74103985 38.56394039 -38.5234375 46.5078125 C-39.65652344 47.11681396 -40.78960937 47.72581543 -41.95703125 48.35327148 C-44.1742562 49.54312942 -46.39292328 50.73030544 -48.61328125 51.91430664 C-51.75113443 53.59353323 -54.87585452 55.29543307 -58 57 C-59.11431396 57.58910156 -60.22862793 58.17820313 -61.37670898 58.78515625 C-62.45509033 59.37554687 -63.53347168 59.9659375 -64.64453125 60.57421875 C-65.61753174 61.09717529 -66.59053223 61.62013184 -67.59301758 62.15893555 C-71.32179763 65.01102302 -71.9894552 68.35182345 -73.109375 72.765625 C-80.52837398 99.7083055 -109.70462072 122.85046465 -131 139 C-131.66 138.67 -132.32 138.34 -133 138 C-130.60556157 135.91505907 -128.20919922 133.83234146 -125.8125 131.75 C-125.13896484 131.16347656 -124.46542969 130.57695312 -123.77148438 129.97265625 C-120.92908629 127.50462279 -118.087398 125.06927454 -115.13671875 122.73046875 C-112.67026479 120.73295667 -110.95015039 118.49863019 -109 116 C-107.34180057 114.3249089 -105.67391819 112.65938345 -104 111 C-93.06536202 99.88059856 -79.7201763 84.91827764 -76.41625977 69.2277832 C-75.25715388 64.38525437 -74.28245568 61.04035227 -70.33203125 57.83569336 C-66.85921884 55.88301714 -63.31922606 54.18898876 -59.6875 52.5625 C-58.3771591 51.93761514 -57.06914878 51.30782146 -55.76342773 50.67333984 C-53.77498436 49.70754416 -51.78577194 48.74453065 -49.78901672 47.79602051 C-43.56250486 44.83590149 -37.54633939 41.54874576 -31.5625 38.125 C-30.62833252 37.59205322 -29.69416504 37.05910645 -28.73168945 36.51000977 C-14.42608615 28.51305174 -14.42608615 28.51305174 -2 18 C-1.34 17.34 -0.68 16.68 0 16 C0.14507695 13.25514407 0.18652423 10.61519457 0.125 7.875 C0.11597656 7.12089844 0.10695313 6.36679688 0.09765625 5.58984375 C0.0740687 3.72642746 0.03819719 1.86317407 0 0 Z " fill="#7F5735" transform="translate(308,122)"/>
<path d="M0 0 C1.66666667 1.66666667 3.33333333 3.33333333 5 5 C5.66128906 5.58523437 6.32257813 6.17046875 7.00390625 6.7734375 C9.42713681 9.47645398 10.43191873 11.97661284 11.6875 15.375 C12.10386719 16.47585937 12.52023437 17.57671875 12.94921875 18.7109375 C16.62271253 30.20938273 15.36017848 41.3366088 10.375 52.1875 C5.30014355 61.78292032 -2.21178934 66.36783668 -12.0625 70.1875 C-26.26619624 74.11618194 -42.91007495 73.04658374 -56 66 C-58.625 63.25 -58.625 63.25 -60 61 C-59.45472656 61.19335938 -58.90945313 61.38671875 -58.34765625 61.5859375 C-57.21650391 61.97652344 -57.21650391 61.97652344 -56.0625 62.375 C-54.96615234 62.75785156 -54.96615234 62.75785156 -53.84765625 63.1484375 C-38.83628054 67.637436 -23.14812164 68.391421 -9 61 C-8.22269531 60.62746094 -7.44539062 60.25492188 -6.64453125 59.87109375 C0.37239561 56.09274852 4.39174349 49.32995151 7.39575195 42.10595703 C8.65949314 37.70149987 8.46981304 33.17232622 8.4375 28.625 C8.45748047 27.635 8.47746094 26.645 8.49804688 25.625 C8.49174761 16.0753211 5.26556879 9.71029716 0 2 C0 1.34 0 0.68 0 0 Z " fill="#046A37" transform="translate(533,189)"/>
<path d="M0 0 C1.32 0.33 2.64 0.66 4 1 C5.50026826 6.45552093 4.3783354 10.06672014 2 15 C1 16 1 16 -2.75 16.25 C-6.8996356 16.24340281 -10.44557156 15.41323293 -14.4375 14.3125 C-20.70135085 12.7831252 -25.30204159 12.80005959 -31 16 C-37.57945349 21.43641284 -40.07579705 28.70692893 -41 37 C-41.1596511 40.43869363 -41.18502906 43.87048411 -41.1875 47.3125 C-41.19974609 48.19873047 -41.21199219 49.08496094 -41.22460938 49.99804688 C-41.2419309 57.91398204 -40.38347716 65.74969179 -37 73 C-40.3153372 71.64057303 -41.62710703 70.49753265 -43.125 67.25 C-43.43695312 66.59515625 -43.74890625 65.9403125 -44.0703125 65.265625 C-44.37710938 64.51796875 -44.68390625 63.7703125 -45 63 C-45.36351562 62.1646875 -45.72703125 61.329375 -46.1015625 60.46875 C-47.41622848 55.39299614 -47.28848233 50.4707694 -47.25 45.25 C-47.25773438 44.21617187 -47.26546875 43.18234375 -47.2734375 42.1171875 C-47.2460021 31.225334 -46.13669668 22.53373872 -39 14 C-34.6587342 9.70992837 -31.55506455 7.84375578 -25.4375 7.75 C-20.49711407 7.77954776 -16.62876751 8.49306804 -12.046875 10.265625 C-9.05514262 11.33899463 -6.15218052 11.66466165 -3 12 C-2.86722656 11.30132812 -2.73445312 10.60265625 -2.59765625 9.8828125 C-2.42105469 8.97273437 -2.24445312 8.06265625 -2.0625 7.125 C-1.88847656 6.22007812 -1.71445312 5.31515625 -1.53515625 4.3828125 C-1 2 -1 2 0 0 Z " fill="#046A37" transform="translate(624,160)"/>
<path d="M0 0 C2.03125 1.3359375 2.03125 1.3359375 3.5 2.625 C3.5 3.285 3.5 3.945 3.5 4.625 C2.819375 4.46 2.13875 4.295 1.4375 4.125 C-6.44599582 2.78312837 -11.8550718 4.19504787 -18.5 8.625 C-18.9775567 11.12560109 -18.9775567 11.12560109 -18.93237305 14.08447266 C-18.95216721 15.22550446 -18.97196136 16.36653625 -18.99235535 17.54214478 C-18.99874527 18.77862762 -19.00513519 20.01511047 -19.01171875 21.2890625 C-19.02966995 22.55140717 -19.04762115 23.81375183 -19.06611633 25.11434937 C-19.11120235 28.47142143 -19.14344945 31.82812448 -19.16955566 35.18536377 C-19.19932615 38.61069073 -19.24586835 42.03578481 -19.29101562 45.4609375 C-19.3761832 52.18218453 -19.44443775 58.90344661 -19.5 65.625 C-21.15 65.295 -22.8 64.965 -24.5 64.625 C-24.63918411 56.88860426 -24.74571344 49.15233873 -24.81087303 41.41497517 C-24.84215173 37.82185372 -24.8845562 34.22959042 -24.95263672 30.63696289 C-25.01796051 27.1679921 -25.05373209 23.69984512 -25.06926346 20.23030663 C-25.08570209 18.26640495 -25.13252186 16.30283361 -25.17977905 14.33943176 C-25.18305965 5.64638401 -25.18305965 5.64638401 -23.22540283 2.71908569 C-16.52312082 -3.05366671 -7.57679681 -4.53804614 0 0 Z " fill="#036937" transform="translate(835.5,170.375)"/>
<path d="M0 0 C2.0625 0.4375 2.0625 0.4375 4 1 C3.98717954 5.07690477 3.82551353 9.00025378 3 13 C-1.11627685 16.93333121 -4.7768204 17.78623273 -10.25 18.3125 C-14.34710159 17.97107487 -16.57169129 16.89462176 -20.0078125 14.77734375 C-23.94083091 13.24269539 -27.76393839 15.23203933 -31.5625 16.5625 C-41.6051812 19.56786534 -51.59186573 18.69695054 -61 14 C-63.204225 12.10538312 -64.42332977 10.47762465 -66 8 C-64.5410574 8.47730838 -63.08286504 8.95691042 -61.625 9.4375 C-60.81289063 9.70433594 -60.00078125 9.97117188 -59.1640625 10.24609375 C-57 11 -57 11 -55 12 C-46.35699903 12.57244632 -38.5107474 13.06159763 -30.71875 8.8359375 C-29 8 -29 8 -26.25 8.0625 C-24 9 -24 9 -21.8125 10.5625 C-17.03824844 13.00267302 -11.93707532 12.88906064 -6.83203125 11.34375 C-4.6329591 10.38648676 -4.6329591 10.38648676 -2 8 C-1.02126462 4.40614946 -1.02126462 4.40614946 -1 1 C-0.67 0.67 -0.34 0.34 0 0 Z " fill="#036937" transform="translate(772,242)"/>
<path d="M0 0 C1.32 0.33 2.64 0.66 4 1 C4.29380531 9.66725664 4.29380531 9.66725664 2 14 C0 16 0 16 -3.375 16.3125 C-7.11235427 16.23761676 -10.45524156 15.45499565 -14.0625 14.5 C-21.73358439 12.4787607 -27.88576516 12.21002388 -35 16 C-37.97736497 19.07340901 -38.90797607 21.8497009 -39.25 26.125 C-38.94888129 30.79234004 -37.65444493 34.65708205 -36 39 C-39.6678066 37.7773978 -39.88887357 36.89096325 -41.625 33.5625 C-42.05039062 32.75941406 -42.47578125 31.95632812 -42.9140625 31.12890625 C-45.22428391 26.59987508 -45.63432211 23.09172069 -45 18 C-43.1875 14.625 -43.1875 14.625 -41 12 C-40.2575 11.1028125 -40.2575 11.1028125 -39.5 10.1875 C-34.51042987 6.23742365 -25.91632367 7.61623846 -20 8 C-17.31496394 8.62324724 -14.79661085 9.4175775 -12.19921875 10.33203125 C-9.02250803 11.29689365 -6.2943107 11.21484635 -3 11 C-1.515 5.555 -1.515 5.555 0 0 Z " fill="#036937" transform="translate(539,120)"/>
<path d="M0 0 C0.66 0 1.32 0 2 0 C3.95139264 5.00044364 5.31979773 9.65838448 3.265625 14.859375 C0.35452478 19.79558841 -3.49016884 21.61287808 -8.84765625 23.28125 C-22.28430985 26.34487362 -36.67462608 25.50690912 -49 19 C-51.29894443 17.46583468 -53.02891959 15.97108041 -55 14 C-55 13.34 -55 12.68 -55 12 C-54.505 12.268125 -54.01 12.53625 -53.5 12.8125 C-41.37423125 18.57224015 -27.04807857 21.8729263 -13.875 17.6875 C-8.40459383 15.47671555 -4.53456887 13.57605152 -2 8 C-1.61250787 5.67504723 -1.27017161 3.34148732 -1 1 C-0.67 0.67 -0.34 0.34 0 0 Z " fill="#036937" transform="translate(623,236)"/>
<path d="M0 0 C0.66 0 1.32 0 2 0 C2 0.66 2 1.32 2 2 C2.99 2.33 3.98 2.66 5 3 C8.84974143 9.21881308 9.12748204 15.60171161 9.11352539 22.76147461 C9.11344986 24.06229477 9.11337433 25.36311493 9.11329651 26.70335388 C9.10819141 28.10301757 9.10297544 29.50268086 9.09765625 30.90234375 C9.09578866 32.34965465 9.09436637 33.79696619 9.09336853 35.24427795 C9.08957018 39.0335976 9.0797631 42.82287826 9.06866455 46.61218262 C9.05839247 50.48689242 9.05385854 54.3616086 9.04882812 58.23632812 C9.03813816 65.82423643 9.02109434 73.41211273 9 81 C7.68 80.34 6.36 79.68 5 79 C4.99191315 78.20566055 4.98382629 77.41132111 4.97549438 76.59291077 C4.8972764 69.07562508 4.80990566 61.55852594 4.71247292 54.04146671 C4.662709 50.17766411 4.61637874 46.31388624 4.578125 42.44995117 C4.54101879 38.71507412 4.49459344 34.98041465 4.44193649 31.24572563 C4.42352614 29.82695808 4.40836991 28.40814414 4.39665604 26.9893055 C4.31549396 17.49109977 3.97022923 8.79122186 0 0 Z " fill="#036A37" transform="translate(761,159)"/>
<path d="M0 0 C0.99 0.66 1.98 1.32 3 2 C2.10796875 2.12117187 1.2159375 2.24234375 0.296875 2.3671875 C-0.87359375 2.53476563 -2.0440625 2.70234375 -3.25 2.875 C-4.41015625 3.03742188 -5.5703125 3.19984375 -6.765625 3.3671875 C-9.58193313 3.91820431 -11.55217557 4.55796482 -14 6 C-13.67468292 6.73171417 -13.34936584 7.46342834 -13.01419067 8.21731567 C-11.55391719 13.66378029 -11.73886946 18.90816551 -11.77294922 24.52294922 C-11.77265717 25.78203598 -11.77236511 27.04112274 -11.77206421 28.33836365 C-11.77149202 31.77803893 -11.78322454 35.2175738 -11.79721212 38.65721655 C-11.80974187 42.25666937 -11.81089175 45.85612566 -11.81326294 49.45559692 C-11.81947113 56.26591855 -11.83587296 63.07617572 -11.85596192 69.88646901 C-11.87834154 77.64219515 -11.88931953 85.39792443 -11.89935279 93.15367484 C-11.9202398 109.10248718 -11.95540287 125.05123527 -12 141 C-12.33 141 -12.66 141 -13 141 C-13.72714678 132.68523843 -14.15508371 124.43979819 -14.18945312 116.09448242 C-14.19774643 114.9837738 -14.20603973 113.87306519 -14.21458435 112.72869873 C-14.23183516 110.3433128 -14.24704105 107.95791135 -14.26036072 105.57250023 C-14.28160183 101.79286446 -14.30860121 98.01330697 -14.33703613 94.23371887 C-14.40139824 85.53733754 -14.45758755 76.84091197 -14.51302338 68.14447021 C-14.56809531 59.51419155 -14.6267912 50.88395864 -14.69187927 42.25374794 C-14.71834024 38.53800918 -14.73921511 34.82226589 -14.7598877 31.10649109 C-14.77649533 28.82384032 -14.79336757 26.54119146 -14.81054688 24.25854492 C-14.81473129 23.23239578 -14.81891571 22.20624664 -14.82322693 21.14900208 C-14.87078359 15.67817752 -15.19831645 10.41344383 -16 5 C-10.35331116 1.1100588 -6.91916702 -0.37066966 0 0 Z " fill="#C8E0BA" transform="translate(801,154)"/>
<path d="M0 0 C0.495 1.485 0.495 1.485 1 3 C1.66 3.33 2.32 3.66 3 4 C-6.23094954 35.82097514 -32.35030396 59.54833081 -58 79 C-58.66 78.67 -59.32 78.34 -60 78 C-57.60556157 75.91505907 -55.20919922 73.83234146 -52.8125 71.75 C-52.13896484 71.16347656 -51.46542969 70.57695312 -50.77148438 69.97265625 C-47.92908629 67.50462279 -45.087398 65.06927454 -42.13671875 62.73046875 C-39.67026479 60.73295667 -37.95015039 58.49863019 -36 56 C-34.34180057 54.3249089 -32.67391819 52.65938345 -31 51 C-16.52120496 36.27655558 -5.99736826 19.89715116 0 0 Z " fill="#6A6B6D" transform="translate(235,182)"/>
<path d="M0 0 C-0.07421875 1.8515625 -0.07421875 1.8515625 -1 4 C-4.46180243 5.45995807 -7.97363913 6.42142143 -11.58203125 7.4609375 C-15.7225419 9.32535029 -16.96226399 10.98913912 -19 15 C-20.21938144 19.91447672 -20.46595722 25.11347593 -19 30 C-21.32025503 29.07189799 -22.71655128 28.43576458 -24.09765625 26.3125 C-26.0209076 21.38364804 -25.80092612 16.16289301 -25 11 C-22.5549162 6.32685168 -19.18220092 3.72750826 -14.75 1 C-9.77212405 -0.32743359 -5.11868109 -0.24991752 0 0 Z " fill="#046B37" transform="translate(744,207)"/>
<path d="M0 0 C3.9207972 1.48719894 5.22975521 3.22860893 7 7 C7.82278501 9.70959043 8.54684417 12.43274107 9.25 15.17578125 C9.90589784 17.64564655 10.65695112 20.0269071 11.5 22.4375 C13.04216634 26.92745305 14.14086642 31.48935875 15.23828125 36.10546875 C15.90012681 38.62048187 16.72179384 40.90503534 17.6875 43.3125 C19.91622174 49.5807799 19.23305493 56.44856708 19 63 C18.34 62.67 17.68 62.34 17 62 C16.43488368 59.70698877 15.97371038 57.38804573 15.5625 55.0625 C14.58578859 49.8011408 13.44265122 44.69776482 11.81640625 39.59765625 C10.80396341 36.37624722 9.90713226 33.12756926 9 29.875 C7.94222453 26.14262117 6.87189206 22.47975492 5.4375 18.875 C3.73163083 14.57770117 2.71792262 10.12740627 1.6484375 5.63671875 C1.01724382 2.91752696 1.01724382 2.91752696 0 0 Z " fill="#056A37" transform="translate(901,156)"/>
<path d="M0 0 C0 0.99 0 1.98 0 3 C-0.90621094 3.09796875 -1.81242188 3.1959375 -2.74609375 3.296875 C-9.41389841 4.11535684 -14.84679513 5.14031956 -20.82421875 8.1796875 C-24.77620525 9.66966446 -28.84521378 9.31225951 -33 9 C-33.33 7.68 -33.66 6.36 -34 5 C-31.31531083 4.01249341 -28.62766735 3.03487645 -25.9375 2.0625 C-25.18533203 1.78470703 -24.43316406 1.50691406 -23.65820312 1.22070312 C-16.39997269 -1.38723249 -6.83938463 -4.55958975 0 0 Z " fill="#046B37" transform="translate(742,171)"/>
<path d="M0 0 C0.79921875 0.01289063 1.5984375 0.02578125 2.421875 0.0390625 C3.246875 0.07257813 4.071875 0.10609375 4.921875 0.140625 C5.76234375 0.15867188 6.6028125 0.17671875 7.46875 0.1953125 C9.53694895 0.24231702 11.60455941 0.31405776 13.671875 0.390625 C13.671875 0.720625 13.671875 1.050625 13.671875 1.390625 C4.761875 2.380625 4.761875 2.380625 -4.328125 3.390625 C-7.18950642 12.20677317 -9.75330771 20.78592462 -11.578125 29.87890625 C-12.38797607 33.67086519 -13.36473207 37.40300683 -14.390625 41.140625 C-15.94951723 46.85656316 -17.28528833 52.55897255 -18.328125 58.390625 C-19.813125 58.885625 -19.813125 58.885625 -21.328125 59.390625 C-21.14636719 58.69839844 -20.96460938 58.00617188 -20.77734375 57.29296875 C-19.3784539 51.84805901 -18.11615541 46.41604155 -17.078125 40.890625 C-15.54257424 33.11537589 -13.74626417 25.40784856 -11.890625 17.703125 C-11.4579834 15.83914062 -11.4579834 15.83914062 -11.01660156 13.9375 C-10.72881836 12.76316406 -10.44103516 11.58882812 -10.14453125 10.37890625 C-9.89131104 9.32227783 -9.63809082 8.26564941 -9.37719727 7.17700195 C-7.58215339 2.40929525 -5.21406994 -0.14897343 0 0 Z " fill="#BBDAAA" transform="translate(941.328125,151.609375)"/>
<path d="M0 0 C3.89903041 2.5993536 4.44720921 4.50257019 5.4375 8.9765625 C5.89615733 13.03281328 5.51499351 15.25271155 3.1640625 18.6640625 C-0.56372582 22.86246861 -4.46746722 26.67106416 -9 30 C-9.66 30 -10.32 30 -11 30 C-9.57442379 26.82096506 -7.8226848 24.46341568 -5.5 21.875 C-4.8915625 21.19179687 -4.283125 20.50859375 -3.65625 19.8046875 C-2.46695076 18.50880012 -1.24373566 17.24373566 0 16 C0.14507695 13.25514407 0.18652423 10.61519457 0.125 7.875 C0.11146484 6.74384766 0.11146484 6.74384766 0.09765625 5.58984375 C0.0740687 3.72642746 0.03819719 1.86317407 0 0 Z " fill="#7D5634" transform="translate(308,122)"/>
<path d="M0 0 C0.98664094 3.17186791 0.96666239 5.59180432 0.5625 8.875 C-0.69839762 21.25472206 0.16077414 33.62141849 1 46 C1.66 46 2.32 46 3 46 C3.48108275 47.41601714 3.95978141 48.83284437 4.4375 50.25 C4.70433594 51.03890625 4.97117187 51.8278125 5.24609375 52.640625 C5.91954708 54.74821988 6.49150595 56.84753973 7 59 C6.34 59 5.68 59 5 59 C-4.28822394 39.90492033 -4.90808583 20.33349844 0 0 Z " fill="#BAD9A9" transform="translate(555,182)"/>
<path d="M0 0 C0 0.66 0 1.32 0 2 C-1.05960938 2.02578125 -2.11921875 2.0515625 -3.2109375 2.078125 C-4.59900001 2.1343978 -5.98701925 2.19174533 -7.375 2.25 C-8.42300781 2.27126953 -8.42300781 2.27126953 -9.4921875 2.29296875 C-13.46492923 2.41525549 -13.46492923 2.41525549 -16.5390625 4.671875 C-17.54911595 9.77350088 -15.59743646 14.50257184 -14 19.3125 C-12.32190012 24.61432282 -11.37549865 29.46139496 -11 35 C-13.75943251 30.86085123 -15.04913043 26.44557885 -16.625 21.75 C-17.11226562 20.35587891 -17.11226562 20.35587891 -17.609375 18.93359375 C-19.34006955 13.79241289 -20.64142174 9.4340673 -20 4 C-14.28569387 -0.89797668 -7.0927127 -0.12395032 0 0 Z " fill="#A5CD8E" transform="translate(898,151)"/>
<path d="M0 0 C0.99 0.495 0.99 0.495 2 1 C2.47070312 3.29736328 2.47070312 3.29736328 2.78125 6.3203125 C2.90113281 7.4134375 3.02101563 8.5065625 3.14453125 9.6328125 C3.26183594 10.78523437 3.37914063 11.93765625 3.5 13.125 C4.21034243 19.96302163 4.91678653 26.43876783 7 33 C7.125 35.9375 7.125 35.9375 7 38 C6.01 37.67 5.02 37.34 4 37 C0.95523681 24.70605051 0.31321966 12.62742443 0 0 Z " fill="#086D37" transform="translate(64,192)"/>
<path d="M0 0 C5.09828811 7.64743216 3.905873 20.12922681 2.3984375 29.015625 C0.38807265 38.72223508 0.38807265 38.72223508 -2 43 C-3 41 -3 41 -2.1015625 38.21875 C-1.73804688 37.1565625 -1.37453125 36.094375 -1 35 C0.78935614 23.52111154 0.10132077 11.57706689 0 0 Z " fill="#ADD298" transform="translate(843,182)"/>
<path d="M0 0 C0.33 0.99 0.66 1.98 1 3 C1.66 3.33 2.32 3.66 3 4 C0.8113641 10.98500818 -1.52623092 17.54871457 -5 24 C-5.99 24 -6.98 24 -8 24 C-8.33 23.34 -8.66 22.68 -9 22 C-8.14453125 20.0390625 -8.14453125 20.0390625 -6.8125 17.625 C-3.84312295 11.95166508 -1.87852104 6.107817 0 0 Z " fill="#67686A" transform="translate(235,182)"/>
<path d="M0 0 C0.99 0.33 1.98 0.66 3 1 C2.01 1.33 1.02 1.66 0 2 C-0.12632812 2.57363281 -0.25265625 3.14726562 -0.3828125 3.73828125 C-1.30123238 7.10388322 -3.40957158 8.76852168 -5.875 11.1875 C-6.75929688 12.06792969 -7.64359375 12.94835937 -8.5546875 13.85546875 C-11 16 -11 16 -14 17 C-12.51131293 12.39860359 -10.25370145 9.49772906 -7 6 C-6.34 6 -5.68 6 -5 6 C-4.731875 5.38125 -4.46375 4.7625 -4.1875 4.125 C-3 2 -3 2 0 0 Z " fill="#AED39B" transform="translate(574,155)"/>
<path d="M0 0 C0.99 0.33 1.98 0.66 3 1 C-4.83957018 8.9255618 -12.90528763 16.52876236 -22 23 C-22.66 22.67 -23.32 22.34 -24 22 C-21.60556157 19.91505907 -19.20919922 17.83234146 -16.8125 15.75 C-16.13896484 15.16347656 -15.46542969 14.57695312 -14.77148438 13.97265625 C-11.93585444 11.51049953 -9.10195646 9.08066885 -6.15625 6.75 C-3.6951601 4.7525937 -1.8968835 2.52917801 0 0 Z " fill="#797A7C" transform="translate(199,238)"/>
<path d="M0 0 C0 0.66 0 1.32 0 2 C-1.24136719 2.12117188 -2.48273437 2.24234375 -3.76171875 2.3671875 C-5.40368526 2.53607548 -7.04561023 2.7053676 -8.6875 2.875 C-9.91243164 2.99294922 -9.91243164 2.99294922 -11.16210938 3.11328125 C-15.47022032 3.56676661 -19.00439302 4.23723221 -23 6 C-26.3125 6.125 -26.3125 6.125 -29 6 C-28 4 -28 4 -26.1796875 3.18359375 C-17.35026913 0.32525662 -9.24226443 -0.13658519 0 0 Z " fill="#C1DDB2" transform="translate(516,109)"/>
<path d="M0 0 C0.95635957 2.58217084 1.14932268 3.65056046 0.046875 6.23046875 C-3.1226368 14.61548318 -1.28020257 23.89785786 2.125 31.890625 C3 34 3 34 3 36 C2.34 36 1.68 36 1 36 C-2.60043661 29.32779072 -3.60489858 23.84543601 -3.4375 16.3125 C-3.44458984 15.40177734 -3.45167969 14.49105469 -3.45898438 13.55273438 C-3.4091881 8.27816009 -2.87158146 4.59300695 0 0 Z " fill="#AAD094" transform="translate(473,127)"/>
<path d="M0 0 C0.6953125 1.74609375 0.6953125 1.74609375 1 4 C-1.76707054 8.4771545 -6.05087334 13.11461841 -11 15 C-15.76171254 15.51500792 -18.93897022 15.70735319 -23 13 C-22.67 12.34 -22.34 11.68 -22 11 C-21.01 11.33 -20.02 11.66 -19 12 C-12.99352233 12.45331907 -9.08170134 11.39687882 -4.3125 7.6875 C-2.46553734 5.31283373 -1.26820453 2.71758113 0 0 Z " fill="#D7E9CD" transform="translate(839,225)"/>
<path d="M0 0 C0.70189453 0.01353516 1.40378906 0.02707031 2.12695312 0.04101562 C3.85579829 0.07629818 5.58424765 0.13010417 7.3125 0.1875 C5.3125 2.1875 5.3125 2.1875 2.4921875 2.3828125 C1.40164063 2.35960937 0.31109375 2.33640625 -0.8125 2.3125 C-1.90820312 2.29445313 -3.00390625 2.27640625 -4.1328125 2.2578125 C-4.97585938 2.23460937 -5.81890625 2.21140625 -6.6875 2.1875 C-7.6775 5.4875 -8.6675 8.7875 -9.6875 12.1875 C-10.3475 11.5275 -11.0075 10.8675 -11.6875 10.1875 C-11.51090789 6.9499779 -11.36429729 4.26938764 -9.6171875 1.4765625 C-6.6102763 -0.53210287 -3.48125135 -0.12676826 0 0 Z " fill="#BFDBAF" transform="translate(886.6875,276.8125)"/>
<path d="M0 0 C-4.625 3 -4.625 3 -8 3 C-9.8198497 8.45954909 -9.37745568 14.49017726 -8 20 C-11.18969209 17.2263547 -11.77048882 15.22625845 -12.1953125 11.10546875 C-12.39771846 7.46890835 -12.46309327 5.62848373 -10.25 2.625 C-4.42647059 -1.58088235 -4.42647059 -1.58088235 0 0 Z " fill="#A0CB88" transform="translate(714,156)"/>
<path d="M0 0 C3.47294006 2.31529337 3.91050088 3.06104164 5 7 C5.15647811 10.00841781 5.11800991 12.99074736 5 16 C3.66666667 16 2.33333333 16 1 16 C0.67 10.72 0.34 5.44 0 0 Z " fill="#906B4A" transform="translate(308,122)"/>
<path d="M0 0 C0.99 0.66 1.98 1.32 3 2 C2.10796875 2.12117187 1.2159375 2.24234375 0.296875 2.3671875 C-0.87359375 2.53476563 -2.0440625 2.70234375 -3.25 2.875 C-4.41015625 3.03742188 -5.5703125 3.19984375 -6.765625 3.3671875 C-9.58193313 3.91820431 -11.55217557 4.55796482 -14 6 C-14 8.31 -14 10.62 -14 13 C-15.42897367 10.73045358 -15.99019296 9.19614074 -16.125 6.5 C-14.5776686 3.06148577 -12.57300437 2.21875149 -9.19921875 0.72265625 C-6.00604523 -0.32661036 -3.32099013 -0.39070472 0 0 Z " fill="#B8D8A6" transform="translate(801,154)"/>
<path d="M0 0 C0.66 0.99 1.32 1.98 2 3 C-6.27906977 12.58139535 -6.27906977 12.58139535 -9 15 C-9.66 15 -10.32 15 -11 15 C-9.3718356 11.24269753 -6.98598083 8.383177 -4.375 5.25 C-3.55773437 4.26515625 -2.74046875 3.2803125 -1.8984375 2.265625 C-1.27195313 1.51796875 -0.64546875 0.7703125 0 0 Z " fill="#6F7072" transform="translate(212,224)"/>
<path d="M0 0 C0.66 0 1.32 0 2 0 C2.34855655 7.62951555 2.0017506 13.92444501 -1 21 C-1.86688859 18.10089716 -2.0458562 15.88547169 -1.66015625 12.890625 C-1.56669922 12.13652344 -1.47324219 11.38242188 -1.37695312 10.60546875 C-1.22129883 9.43951172 -1.22129883 9.43951172 -1.0625 8.25 C-0.96259766 7.45722656 -0.86269531 6.66445312 -0.75976562 5.84765625 C-0.51307129 3.89759629 -0.2574122 1.94867414 0 0 Z " fill="#107237" transform="translate(360,197)"/>
<path d="M0 0 C3.88816746 1.94408373 4.53768924 7.42574458 5.890625 11.38671875 C7.10699527 15.3484881 7.75272519 18.87875321 8 23 C2.4644688 17.4644688 1.23316904 7.48014378 0 0 Z " fill="#AAD195" transform="translate(887,186)"/>
<path d="M0 0 C0.33 0 0.66 0 1 0 C1.10957031 0.56847656 1.21914063 1.13695312 1.33203125 1.72265625 C2.13310723 5.62383115 2.97699479 9.20317707 4.6875 12.8125 C6.06464549 16.15699619 6.04528847 16.76591956 5 20 C1.52580157 13.86224945 -0.36694466 8.06291153 -1 1 C-0.67 0.67 -0.34 0.34 0 0 Z " fill="#9AC780" transform="translate(901,225)"/>
<path d="M0 0 C0.33 0 0.66 0 1 0 C1.44777017 7.46283617 0.34298193 14.893919 -2 22 C-2.99 22.33 -3.98 22.66 -5 23 C-4.80664062 22.26136719 -4.61328125 21.52273437 -4.4140625 20.76171875 C-2.64748057 13.87904558 -1.17260421 7.00803458 0 0 Z " fill="#C5DFB7" transform="translate(925,188)"/>
<path d="M0 0 C16.8929385 -0.55353075 16.8929385 -0.55353075 24 3 C24 3.66 24 4.32 24 5 C18.125 4.125 18.125 4.125 17 3 C14.14471393 2.599617 11.30263513 2.2481773 8.4375 1.9375 C7.63119141 1.84662109 6.82488281 1.75574219 5.99414062 1.66210938 C3.99652623 1.43752551 1.9983144 1.21826764 0 1 C0 0.67 0 0.34 0 0 Z " fill="#AFD39B" transform="translate(826,150)"/>
<path d="M0 0 C1.66611905 -0.042721 3.33382885 -0.04063832 5 0 C6 1 6 1 6.0625 3.5625 C6.041875 4.366875 6.02125 5.17125 6 6 C4.02 6 2.04 6 0 6 C-1.125 2.25 -1.125 2.25 0 0 Z " fill="#EFE6DE" transform="translate(268,143)"/>
<path d="M0 0 C2.19202046 3.28803068 3.04258616 6.08254261 4.125 9.875 C4.47820313 11.08929688 4.83140625 12.30359375 5.1953125 13.5546875 C5.89353035 16.5441445 6.1736106 18.95602755 6 22 C3.92093577 18.88140365 2.9857867 16.25435952 1.875 12.6875 C1.52179687 11.57761719 1.16859375 10.46773437 0.8046875 9.32421875 C0.01811591 6.07483807 -0.15099513 3.32692608 0 0 Z " fill="#A5CE8F" transform="translate(881,164)"/>
<path d="M0 0 C0.99 0.33 1.98 0.66 3 1 C2.34 1 1.68 1 1 1 C0.75507813 1.58265625 0.51015625 2.1653125 0.2578125 2.765625 C-1.20435874 5.36302236 -2.84740414 6.83975831 -5.125 8.75 C-6.21167969 9.67039062 -6.21167969 9.67039062 -7.3203125 10.609375 C-7.87460937 11.06828125 -8.42890625 11.5271875 -9 12 C-9 7.68381834 -6.86729652 6.07210341 -4 3 C-3.34 3 -2.68 3 -2 3 C-2 2.34 -2 1.68 -2 1 C-1.34 0.67 -0.68 0.34 0 0 Z " fill="#DBEBD2" transform="translate(484,115)"/>
<path d="M0 0 C0.556875 0.27714844 1.11375 0.55429688 1.6875 0.83984375 C5.63894187 2.71544369 9.1179539 4.20426007 13.5 4.625 C14.655 4.74875 15.81 4.8725 17 5 C17.33 5.66 17.66 6.32 18 7 C12.36120032 7.35992338 7.03881526 6.75031057 2 4 C0.73828125 1.890625 0.73828125 1.890625 0 0 Z " fill="#A6CE90" transform="translate(481,231)"/>
<path d="M0 0 C0.99 0.495 0.99 0.495 2 1 C2.6328125 3.984375 2.6328125 3.984375 3.125 7.75 C3.29257813 8.98234375 3.46015625 10.2146875 3.6328125 11.484375 C3.9337262 14.36546366 4.07723474 17.10921414 4 20 C0.4664584 16.4664584 0.10947217 11.27154756 -0.125 6.40625 C-0.125 4.27042687 -0.06776977 2.13474769 0 0 Z " fill="#298238" transform="translate(64,192)"/>
<path d="M0 0 C0.33 0.99 0.66 1.98 1 3 C1.66 3.33 2.32 3.66 3 4 C2.6017125 5.29745172 2.18056078 6.5878981 1.75 7.875 C1.51796875 8.59429687 1.2859375 9.31359375 1.046875 10.0546875 C-0.25137839 12.46711358 -1.49377424 13.01615105 -4 14 C-3.79503906 13.32453125 -3.59007812 12.6490625 -3.37890625 11.953125 C-3.10949219 11.06109375 -2.84007812 10.1690625 -2.5625 9.25 C-2.16224609 7.92742187 -2.16224609 7.92742187 -1.75390625 6.578125 C-1.11531506 4.39434165 -0.53224167 2.21164502 0 0 Z " fill="#67686A" transform="translate(235,182)"/>
<path d="M0 0 C0 0.66 0 1.32 0 2 C-8.415 2.495 -8.415 2.495 -17 3 C-12.64547174 -1.35452826 -5.77102003 -0.10085278 0 0 Z " fill="#B9D8A7" transform="translate(898,151)"/>
<path d="M0 0 C1.2065625 0.0309375 1.2065625 0.0309375 2.4375 0.0625 C2.4375 1.7125 2.4375 3.3625 2.4375 5.0625 C0.7875 5.3925 -0.8625 5.7225 -2.5625 6.0625 C-2.94468767 4.40635343 -3.27645102 2.73792976 -3.5625 1.0625 C-2.5625 0.0625 -2.5625 0.0625 0 0 Z " fill="#F5EFEA" transform="translate(293.5625,127.9375)"/>
<path d="M0 0 C6.18160604 0.53753096 11.326858 2.54582388 17 5 C16.67 5.66 16.34 6.32 16 7 C15.26394531 6.72285156 14.52789063 6.44570312 13.76953125 6.16015625 C12.79371094 5.79792969 11.81789063 5.43570313 10.8125 5.0625 C9.84957031 4.70285156 8.88664063 4.34320313 7.89453125 3.97265625 C5.2631722 3.08843438 2.73105092 2.47431414 0 2 C0 1.34 0 0.68 0 0 Z " fill="#A4CD8E" transform="translate(519,110)"/>
<path d="M0 0 C0.66 0.33 1.32 0.66 2 1 C1.36771484 2.21236328 1.36771484 2.21236328 0.72265625 3.44921875 C0.17480469 4.51785156 -0.37304688 5.58648437 -0.9375 6.6875 C-1.48277344 7.74324219 -2.02804687 8.79898438 -2.58984375 9.88671875 C-3.8470576 12.66234047 -4.56069569 15.00272126 -5 18 C-5.33 18 -5.66 18 -6 18 C-5.70525904 11.63359524 -4.73796238 4.73796238 0 0 Z " fill="#D0E5C4" transform="translate(474,227)"/>
<path d="M0 0 C0.33 0.99 0.66 1.98 1 3 C-0.14453125 4.82421875 -0.14453125 4.82421875 -1.8125 6.6875 C-2.35519531 7.31011719 -2.89789063 7.93273437 -3.45703125 8.57421875 C-5 10 -5 10 -7 10 C-6.52727227 5.74545047 -4.03562624 3.80795427 -1 1 C-0.67 0.67 -0.34 0.34 0 0 Z " fill="#646567" transform="translate(220,216)"/>
<path d="M0 0 C1.98 0 3.96 0 6 0 C5.67 1.65 5.34 3.3 5 5 C3.35 5 1.7 5 0 5 C0 3.35 0 1.7 0 0 Z " fill="#F7F4F0" transform="translate(245,159)"/>
<path d="M0 0 C3.56354796 5.34532193 5.48754536 10.49939519 5 17 C1.67289832 12.00934748 -0.58827908 6.07888388 0 0 Z " fill="#A8CF93" transform="translate(895,209)"/>
<path d="M0 0 C4.62 0.66 9.24 1.32 14 2 C12 4 12 4 9.94140625 4.265625 C9.15636719 4.26046875 8.37132812 4.2553125 7.5625 4.25 C6.38880859 4.25773438 6.38880859 4.25773438 5.19140625 4.265625 C3 4 3 4 0 2 C0 1.34 0 0.68 0 0 Z " fill="#A4CD8E" transform="translate(816,236)"/>
<path d="M0 0 C-0.99 3.3 -1.98 6.6 -3 10 C-3.66 9.34 -4.32 8.68 -5 8 C-4.75 4.4375 -4.75 4.4375 -4 1 C-2 0 -2 0 0 0 Z " fill="#A5CD8E" transform="translate(880,279)"/>
<path d="M0 0 C0.99 0.33 1.98 0.66 3 1 C-0.3 3.64 -3.6 6.28 -7 9 C-7.66 8.67 -8.32 8.34 -9 8 C-6.03 5.36 -3.06 2.72 0 0 Z " fill="#8F9091" transform="translate(184,252)"/>
<path d="M0 0 C1.25127906 3.54667178 0.72285053 5.72253438 -0.4375 9.25 C-0.72496094 10.14203125 -1.01242187 11.0340625 -1.30859375 11.953125 C-1.53675781 12.62859375 -1.76492188 13.3040625 -2 14 C-2.33 14 -2.66 14 -3 14 C-3.29341888 8.32723489 -3.00559652 5.00932754 0 0 Z " fill="#CFE5C4" transform="translate(473,127)"/>
<path d="M0 0 C0.66 0 1.32 0 2 0 C1.88590407 1.45922693 1.75834456 2.91740598 1.625 4.375 C1.55539062 5.18710938 1.48578125 5.99921875 1.4140625 6.8359375 C1 9 1 9 -1 11 C-1.14285714 3.57142857 -1.14285714 3.57142857 0 0 Z " fill="#B5D6A2" transform="translate(927,180)"/>
<path d="M0 0 C0.99 0.33 1.98 0.66 3 1 C2.67 1.99 2.34 2.98 2 4 C0.35 4.33 -1.3 4.66 -3 5 C-2.625 3.0625 -2.625 3.0625 -2 1 C-1.34 0.67 -0.68 0.34 0 0 Z " fill="#7C5432" transform="translate(239,180)"/>
<path d="M0 0 C-4.95 2.475 -4.95 2.475 -10 5 C-10.33 4.34 -10.66 3.68 -11 3 C-4.5 -1.125 -4.5 -1.125 0 0 Z " fill="#D3E7C9" transform="translate(714,156)"/>
<path d="M0 0 C0.33 0.66 0.66 1.32 1 2 C0.22265625 3.9453125 0.22265625 3.9453125 -0.9375 6.125 C-1.31777344 6.84945312 -1.69804688 7.57390625 -2.08984375 8.3203125 C-2.39019531 8.87460938 -2.69054687 9.42890625 -3 10 C-4.171875 6.3359375 -4.171875 6.3359375 -2.625 3.3125 C-1 1 -1 1 0 0 Z " fill="#CAE2BD" transform="translate(701,207)"/>
<path d="M0 0 C-0.66 1.98 -1.32 3.96 -2 6 C-2.99 6 -3.98 6 -5 6 C-5.33 5.34 -5.66 4.68 -6 4 C-2.25 0 -2.25 0 0 0 Z " fill="#707172" transform="translate(235,194)"/>
<path d="M0 0 C0.33 0.99 0.66 1.98 1 3 C1.66 3.33 2.32 3.66 3 4 C2.34 5.32 1.68 6.64 1 8 C0.34 8 -0.32 8 -1 8 C-0.67 5.36 -0.34 2.72 0 0 Z " fill="#64615F" transform="translate(235,182)"/>
<path d="M0 0 C2.50298434 2.93828597 3.46930939 5.17902761 4 9 C3.34 9 2.68 9 2 9 C0.14223235 5.86501708 -0.20140476 3.62528568 0 0 Z " fill="#9CC984" transform="translate(472,154)"/>
<path d="M0 0 C0.99 0.33 1.98 0.66 3 1 C2.34 1 1.68 1 1 1 C0.7525 1.61875 0.505 2.2375 0.25 2.875 C-1.20628639 5.35068687 -2.37812506 5.95125002 -5 7 C-2.25 1.125 -2.25 1.125 0 0 Z " fill="#B1D49E" transform="translate(484,115)"/>
</svg>
